<?xml version="1.0" encoding="UTF-8" standalone="no"?>
<!DOCTYPE svg PUBLIC "-//W3C//DTD SVG 20010904//EN"
              "http://www.w3.org/TR/2001/REC-SVG-20010904/DTD/svg10.dtd">

<svg xmlns="http://www.w3.org/2000/svg"
     width="1.28in" height="1.28in"
     viewBox="0 0 384 384">
  <path id="Selection"
        fill="none" stroke="black" stroke-width="1"
        d="M 178.00,5.21
           C 159.73,8.02 146.93,9.14 129.00,15.34
             84.43,30.76 47.70,62.59 25.31,104.00
             -14.57,177.73 0.51,272.63 62.00,329.91
             82.05,348.59 105.03,362.34 131.00,371.00
             147.02,376.34 161.32,378.57 178.00,380.17
             178.00,380.17 187.00,381.00 187.00,381.00
             216.00,381.34 246.89,375.08 273.00,362.24
             294.76,351.54 314.55,337.02 330.83,319.00
             389.00,254.59 395.15,156.05 345.28,85.00
             325.15,56.32 302.00,38.21 271.00,22.75
             251.17,12.86 220.20,5.26 198.00,5.21
             198.00,5.21 178.00,5.21 178.00,5.21 Z
           M 189.00,8.29
           C 194.03,7.93 194.51,8.60 199.00,9.04
             199.00,9.04 209.00,9.04 209.00,9.04
             209.00,9.04 228.00,12.20 228.00,12.20
             283.22,23.18 331.99,60.22 356.74,111.00
             370.22,138.65 373.68,160.90 375.82,191.00
             375.82,191.00 375.00,204.00 375.00,204.00
             374.96,212.78 373.51,221.39 371.80,230.00
             360.10,288.83 319.17,338.99 264.00,362.57
             246.24,370.17 219.32,376.97 200.00,377.00
             200.00,377.00 180.00,377.00 180.00,377.00
             165.88,376.83 145.45,372.17 132.00,367.67
             103.24,358.05 76.78,341.22 56.09,319.00
             6.86,266.14 -7.99,184.15 22.31,118.00
             44.20,70.20 84.48,32.74 135.00,17.02
             146.44,13.47 166.18,9.06 178.00,9.00
             183.49,8.97 183.46,9.07 189.00,8.29 Z
           M 275.00,237.00
           C 270.34,247.42 260.84,259.05 252.00,266.20
             233.54,281.12 212.89,289.27 189.00,289.00
             155.33,288.60 119.43,266.02 106.00,235.00
             106.00,235.00 272.00,235.00 272.00,235.00
             272.00,235.00 272.00,155.00 272.00,155.00
             272.00,155.00 105.00,155.00 105.00,155.00
             124.53,109.68 179.27,87.04 225.00,105.45
             249.44,115.29 263.08,129.57 276.00,152.00
             282.48,150.15 290.08,145.11 296.00,141.60
             296.00,141.60 325.00,124.85 325.00,124.85
             328.34,122.94 339.52,117.83 339.71,113.91
             339.82,111.47 335.13,104.26 333.66,102.00
             327.36,92.32 320.15,83.18 312.00,75.00
             283.18,46.06 241.32,25.48 200.00,24.84
             200.00,24.84 193.00,24.84 193.00,24.84
             193.00,24.84 178.00,24.84 178.00,24.84
             160.23,25.21 131.98,33.88 116.00,41.76
             87.98,55.57 63.56,77.43 47.19,104.00
             13.40,158.23 13.09,229.97 47.19,284.00
             56.32,298.21 66.16,310.43 79.00,321.42
             93.11,333.50 108.71,343.68 126.00,350.60
             142.57,357.23 164.10,362.97 182.00,363.00
             182.00,363.00 201.00,363.00 201.00,363.00
             208.72,362.99 216.43,361.66 224.00,360.20
             257.85,353.66 287.70,337.41 312.00,313.00
             319.85,305.11 327.68,295.46 333.58,286.00
             334.97,283.76 339.16,277.56 338.91,275.10
             338.55,271.69 327.14,266.07 324.00,264.28
             324.00,264.28 293.00,246.42 293.00,246.42
             287.55,243.30 280.84,238.70 275.00,237.00 Z" />
</svg>
